<svg width="34" height="32" viewBox="0 0 34 32" fill="none" xmlns="http://www.w3.org/2000/svg">
<path d="M12.4423 31.9799C11.2923 31.9799 10.273 31.6559 9.3845 31.0079C8.49625 30.3599 7.84538 29.5013 7.43188 28.432C7.07988 28.9473 6.61688 29.3439 6.04288 29.6219C5.46887 29.8997 4.87125 30.0385 4.25 30.0385C3.0905 30.0385 2.11313 29.6375 1.31788 28.8355C0.522625 28.0335 0.125 27.0595 0.125 25.9135C0.125 24.9155 0.460625 24.0118 1.13188 23.2023C1.80288 22.3925 2.65188 21.954 3.67887 21.8868C3.25188 21.406 2.91825 20.8628 2.678 20.257C2.4375 19.6513 2.31725 19.0167 2.31725 18.3532C2.31725 17.4372 2.54712 16.5783 3.00688 15.7765C3.46637 14.975 4.11062 14.3185 4.93962 13.807C5.03612 14.1425 5.1665 14.5014 5.33075 14.8837C5.495 15.2659 5.67613 15.6013 5.87413 15.8898C5.46638 16.2033 5.15287 16.5785 4.93363 17.0155C4.71438 17.4528 4.60475 17.9112 4.60475 18.3907C4.60475 19.8677 5.17975 20.7999 6.32975 21.1874C7.47975 21.5749 8.61538 21.8783 9.73663 22.0975L10.2616 22.9945C9.98662 23.7945 9.75625 24.4734 9.5705 25.0312C9.385 25.5887 9.29225 26.0973 9.29225 26.557C9.29225 27.3993 9.596 28.1363 10.2035 28.768C10.8108 29.3998 11.5522 29.7157 12.428 29.7157C13.4357 29.7157 14.2665 29.3027 14.9203 28.4767C15.574 27.6507 16.1105 26.6748 16.5297 25.549C16.949 24.423 17.2721 23.2749 17.4991 22.1047C17.7261 20.9344 17.9118 20.0079 18.056 19.3252L20.2595 19.9252C20.0442 20.9829 19.7838 22.2032 19.478 23.5859C19.1723 24.9687 18.74 26.2825 18.1813 27.5275C17.6225 28.7728 16.8874 29.8262 15.9759 30.6877C15.0644 31.5492 13.8865 31.9799 12.4423 31.9799ZM4.25 27.7889C4.77125 27.7889 5.21412 27.6067 5.57862 27.2422C5.94287 26.8777 6.125 26.4348 6.125 25.9135C6.125 25.3925 5.94287 24.9498 5.57862 24.5853C5.21412 24.2208 4.77125 24.0385 4.25 24.0385C3.729 24.0385 3.28625 24.2208 2.92175 24.5853C2.55725 24.9498 2.375 25.3925 2.375 25.9135C2.375 26.4348 2.55725 26.8777 2.92175 27.2422C3.28625 27.6067 3.729 27.7889 4.25 27.7889ZM14.1357 21.7338C13.053 20.7665 12.0669 19.8632 11.1774 19.0237C10.2879 18.1844 9.52138 17.3653 8.87788 16.5663C8.23413 15.7673 7.73938 14.9682 7.39363 14.1689C7.04788 13.3699 6.875 12.5397 6.875 11.6782C6.875 10.1587 7.39513 8.87878 8.43538 7.83853C9.47563 6.79828 10.7555 6.27815 12.275 6.27815C12.4615 6.27815 12.6284 6.28928 12.7756 6.31153C12.9226 6.33353 13.0701 6.3589 13.2181 6.38765C13.1086 6.1474 13.0241 5.90378 12.9646 5.65678C12.9049 5.41003 12.875 5.15078 12.875 4.87903C12.875 3.73328 13.2759 2.7594 14.0776 1.9574C14.8794 1.15515 15.8529 0.754028 16.9981 0.754028C18.1436 0.754028 19.1178 1.15515 19.9205 1.9574C20.7235 2.7594 21.125 3.73328 21.125 4.87903C21.125 5.15403 21.0951 5.41028 21.0354 5.64778C20.9759 5.88528 20.8914 6.12428 20.7819 6.36478C20.9299 6.33603 21.0774 6.3144 21.2244 6.2999C21.3716 6.2854 21.5385 6.27815 21.725 6.27815C23.0423 6.27815 24.1754 6.68003 25.1244 7.48378C26.0734 8.28778 26.6767 9.29653 26.9345 10.51C26.5917 10.4543 26.2061 10.4264 25.7776 10.4264C25.3489 10.4264 24.9548 10.4465 24.5952 10.4868C24.3722 9.91178 24.0077 9.44165 23.5018 9.0764C22.996 8.7109 22.4059 8.52815 21.7314 8.52815C20.8234 8.52815 20.1088 8.77715 19.5875 9.27515C19.0662 9.7734 18.371 10.5244 17.5018 11.5282H16.4608C15.5665 10.4839 14.8588 9.7229 14.3375 9.24515C13.8163 8.76715 13.1288 8.52815 12.275 8.52815C11.367 8.52815 10.615 8.82615 10.019 9.42215C9.423 10.0182 9.125 10.7702 9.125 11.6782C9.125 12.2562 9.28025 12.853 9.59075 13.4688C9.9015 14.0848 10.3426 14.7365 10.9141 15.424C11.4859 16.1115 12.1791 16.8428 12.9939 17.6178C13.8089 18.3928 14.724 19.2303 15.7393 20.1303L14.1357 21.7338ZM17 6.75403C17.5212 6.75403 17.964 6.5719 18.3283 6.20765C18.6927 5.84315 18.875 5.40028 18.875 4.87903C18.875 4.35803 18.6927 3.91528 18.3283 3.55078C17.964 3.18628 17.5212 3.00403 17 3.00403C16.4788 3.00403 16.036 3.18628 15.6718 3.55078C15.3073 3.91528 15.125 4.35803 15.125 4.87903C15.125 5.40028 15.3073 5.84315 15.6718 6.20765C16.036 6.5719 16.4788 6.75403 17 6.75403ZM21.4914 31.9945C21.0384 31.9945 20.5906 31.938 20.1481 31.825C19.7054 31.7118 19.2781 31.5327 18.8664 31.2877C19.0734 31.0229 19.2804 30.7108 19.4874 30.3513C19.6944 29.9918 19.8825 29.6607 20.0518 29.3579C20.3005 29.4917 20.5491 29.5872 20.7976 29.6444C21.0461 29.7017 21.2946 29.7303 21.5431 29.7303C22.4296 29.7303 23.1801 29.4148 23.7946 28.7838C24.4091 28.153 24.7164 27.403 24.7164 26.5338C24.7164 26.0618 24.6236 25.5524 24.4381 25.0057C24.2524 24.4592 24.022 23.7859 23.747 22.9859L24.2866 22.0889C25.4326 21.8697 26.5744 21.5638 27.7119 21.1713C28.8494 20.779 29.4181 19.8444 29.4181 18.3674C29.4181 17.2617 29.0206 16.4502 28.2256 15.9329C27.4304 15.4157 26.5471 15.157 25.5759 15.157C24.5469 15.157 23.3464 15.3425 21.9744 15.7135C20.6024 16.0848 19.0077 16.5733 17.1905 17.179L16.5905 14.9752C18.425 14.3887 20.0675 13.8925 21.518 13.4868C22.9683 13.081 24.2998 12.8782 25.5125 12.8782C27.1318 12.8782 28.5625 13.357 29.8048 14.3148C31.047 15.2725 31.6681 16.6234 31.6681 18.3674C31.6681 19.0269 31.5504 19.6533 31.3149 20.2465C31.0794 20.84 30.7481 21.3868 30.3211 21.8868C31.3481 21.9638 32.1971 22.4023 32.8681 23.2023C33.5394 24.0023 33.875 24.906 33.875 25.9135C33.875 27.0483 33.4774 28.0195 32.6821 28.8273C31.8869 29.6348 30.9095 30.0385 29.75 30.0385C29.1287 30.0385 28.5311 29.8997 27.9571 29.6219C27.3831 29.3439 26.9201 28.9473 26.5681 28.432C26.1546 29.5013 25.4989 30.3623 24.6009 31.015C23.7029 31.668 22.6664 31.9945 21.4914 31.9945ZM29.7875 27.7889C30.3085 27.7889 30.745 27.6067 31.097 27.2422C31.449 26.8777 31.625 26.4348 31.625 25.9135C31.625 25.3925 31.4427 24.9435 31.0783 24.5665C30.7138 24.1895 30.271 24.001 29.75 24.001C29.2288 24.001 28.7859 24.1833 28.4214 24.5478C28.0571 24.9123 27.875 25.355 27.875 25.876C27.875 26.3973 28.0634 26.8464 28.4401 27.2234C28.8171 27.6004 29.2662 27.7889 29.7875 27.7889Z" fill="#6699FF"/>
</svg>
