<svg width="16" height="17" viewBox="0 0 16 17" fill="none" xmlns="http://www.w3.org/2000/svg">
<path d="M14.2799 8.17193C14.3992 8.11928 14.5005 8.03278 14.5712 7.92313C14.6418 7.81349 14.6788 7.68553 14.6774 7.55509C14.6761 7.42465 14.6365 7.29748 14.5636 7.18932C14.4907 7.08116 14.3876 6.99677 14.2672 6.9466L8.5532 4.34393C8.37949 4.2647 8.19079 4.22369 7.99987 4.22369C7.80894 4.22369 7.62024 4.2647 7.44653 4.34393L1.7332 6.94393C1.61451 6.99591 1.51354 7.08136 1.44264 7.18981C1.37174 7.29826 1.33398 7.42503 1.33398 7.5546C1.33398 7.68417 1.37174 7.81093 1.44264 7.91939C1.51354 8.02784 1.61451 8.11328 1.7332 8.16527L7.44653 10.7706C7.62024 10.8498 7.80894 10.8908 7.99987 10.8908C8.19079 10.8908 8.37949 10.8498 8.5532 10.7706L14.2799 8.17193Z" stroke="#29303D" stroke-opacity="0.6" stroke-width="1.33333" stroke-linecap="round" stroke-linejoin="round"/>
<path d="M14.668 7.55762V11.5576" stroke="#29303D" stroke-opacity="0.6" stroke-width="1.33333" stroke-linecap="round" stroke-linejoin="round"/>
<path d="M4 9.22363V11.557C4 12.0874 4.42143 12.5961 5.17157 12.9712C5.92172 13.3463 6.93913 13.557 8 13.557C9.06087 13.557 10.0783 13.3463 10.8284 12.9712C11.5786 12.5961 12 12.0874 12 11.557V9.22363" stroke="#29303D" stroke-opacity="0.6" stroke-width="1.33333" stroke-linecap="round" stroke-linejoin="round"/>
</svg>
