<svg width="32" height="32" viewBox="0 0 32 32" fill="none" xmlns="http://www.w3.org/2000/svg">
<path d="M21.1203 31.6406C18.676 31.6406 16.5198 30.9185 14.6515 29.4743C12.7833 28.03 11.5337 26.1847 10.903 23.9385C11.8452 23.9695 12.7606 23.8859 13.6491 23.6876C14.5376 23.4896 15.3953 23.1984 16.222 22.8139H23.1798C23.2145 22.4859 23.2405 22.1654 23.2577 21.8524C23.275 21.5394 23.2836 21.219 23.2836 20.8913C23.2836 20.6227 23.275 20.3438 23.2577 20.0543C23.2405 19.7645 23.2145 19.4824 23.1798 19.2079H20.9961C21.2904 18.8636 21.563 18.5064 21.814 18.1361C22.065 17.7661 22.2991 17.3734 22.5164 16.9579H28.4095C27.9095 16.0636 27.2711 15.2824 26.4944 14.6141C25.7174 13.9459 24.8336 13.4425 23.8431 13.104C23.9296 12.729 23.9893 12.3464 24.022 11.9561C24.0547 11.5656 24.0634 11.1781 24.0479 10.7936C26.2941 11.4244 28.1394 12.6739 29.5836 14.5421C31.0279 16.4104 31.75 18.5666 31.75 21.0109C31.75 23.9636 30.7165 26.4734 28.6495 28.5401C26.5828 30.6071 24.073 31.6406 21.1203 31.6406ZM18.4233 28.8251C18.1233 28.2001 17.866 27.578 17.6515 26.9588C17.437 26.3395 17.2644 25.7078 17.1336 25.0635H13.8453C14.328 25.9675 14.9635 26.7489 15.7518 27.4076C16.5403 28.0661 17.4307 28.5386 18.4233 28.8251ZM21.1203 29.1915C21.5355 28.5455 21.8783 27.8773 22.1485 27.1868C22.4188 26.4963 22.6385 25.7885 22.8078 25.0635H19.4328C19.602 25.7885 19.8231 26.4963 20.0961 27.1868C20.3691 27.8773 20.7105 28.5455 21.1203 29.1915ZM23.8173 28.8251C24.8095 28.5386 25.7022 28.0661 26.4955 27.4076C27.289 26.7489 27.927 25.9675 28.4095 25.0635H25.1039C24.9499 25.7078 24.772 26.3395 24.5702 26.9588C24.3682 27.578 24.1173 28.2001 23.8173 28.8251ZM25.4298 22.8139H29.2923C29.3615 22.5254 29.4135 22.2335 29.4482 21.9383C29.4827 21.643 29.5 21.3339 29.5 21.0109C29.5 20.6876 29.4827 20.3785 29.4482 20.0835C29.4135 19.7882 29.3615 19.4964 29.2923 19.2079H25.4298C25.4643 19.4821 25.4902 19.7639 25.5077 20.0531C25.525 20.3424 25.5336 20.6241 25.5336 20.8984C25.5336 21.2249 25.525 21.5441 25.5077 21.8561C25.4902 22.1679 25.4643 22.4871 25.4298 22.8139ZM10.8805 21.4001C7.92825 21.4001 5.41838 20.3667 3.35087 18.3C1.28363 16.2332 0.25 13.7236 0.25 10.7711C0.25 7.81887 1.28338 5.309 3.35013 3.2415C5.41687 1.17425 7.9265 0.140625 10.879 0.140625C13.8315 0.140625 16.3414 1.174 18.4086 3.24075C20.4759 5.3075 21.5095 7.81713 21.5095 10.7696C21.5095 13.7221 20.4761 16.232 18.4094 18.2992C16.3426 20.3665 13.833 21.4001 10.8805 21.4001ZM10.8828 19.1501C13.1943 19.1501 15.1683 18.331 16.8048 16.6928C18.4412 15.0543 19.2595 13.0793 19.2595 10.7678C19.2595 8.456 18.4404 6.48188 16.8021 4.84538C15.1636 3.20888 13.1886 2.39062 10.8771 2.39062C8.56538 2.39062 6.59125 3.20987 4.95475 4.84837C3.31825 6.48662 2.5 8.46162 2.5 10.7734C2.5 13.0849 3.31925 15.0589 4.95775 16.6954C6.596 18.3319 8.571 19.1501 10.8828 19.1501ZM7.23063 9.87638C7.58838 9.87638 7.89425 9.752 8.14825 9.50325C8.402 9.2545 8.52888 8.94625 8.52888 8.5785C8.52888 8.211 8.402 7.90275 8.14825 7.65375C7.89425 7.40475 7.586 7.28025 7.2235 7.28025C6.861 7.28025 6.55525 7.4045 6.30625 7.653C6.05725 7.90175 5.93275 8.21 5.93275 8.57775C5.93275 8.94525 6.05713 9.2535 6.30587 9.5025C6.55463 9.75175 6.86287 9.87638 7.23063 9.87638ZM10.8869 16.2454C11.9764 16.2454 12.9586 15.9631 13.8336 15.3986C14.7086 14.8344 15.3779 14.1041 15.8414 13.2079L5.91813 13.1936C6.38162 14.0994 7.05338 14.8344 7.93338 15.3986C8.81313 15.9631 9.79762 16.2454 10.8869 16.2454ZM14.5431 9.87638C14.9009 9.87638 15.2067 9.752 15.4608 9.50325C15.7145 9.2545 15.8414 8.94625 15.8414 8.5785C15.8414 8.211 15.7145 7.90275 15.4608 7.65375C15.2067 7.40475 14.8985 7.28025 14.536 7.28025C14.1735 7.28025 13.8678 7.4045 13.6188 7.653C13.3698 7.90175 13.2453 8.21 13.2453 8.57775C13.2453 8.94525 13.3696 9.2535 13.6184 9.5025C13.8671 9.75175 14.1754 9.87638 14.5431 9.87638Z" fill="#EF4444"/>
</svg>
