<svg width="30" height="26" viewBox="0 0 30 26" fill="none" xmlns="http://www.w3.org/2000/svg">
<path d="M2.31938 14.2897C2.29438 14.059 2.27563 13.8258 2.26313 13.59C2.25063 13.3545 2.24438 13.1214 2.24438 12.8906C2.24438 11.1214 2.5775 9.46375 3.24375 7.91775C3.91025 6.3715 4.82225 5.02337 5.97975 3.87337C7.1375 2.72337 8.488 1.81375 10.0312 1.1445C11.5745 0.475251 13.2308 0.140625 15 0.140625C16.7787 0.140625 18.4436 0.475251 19.9946 1.1445C21.5456 1.81375 22.8961 2.72337 24.0461 3.87337C25.1961 5.02337 26.1081 6.3715 26.7821 7.91775C27.4561 9.46375 27.7931 11.1214 27.7931 12.8906C27.7931 13.1214 27.7869 13.3545 27.7744 13.59C27.7619 13.8258 27.7431 14.059 27.7181 14.2897H25.4452C25.4855 14.059 25.5119 13.8258 25.5244 13.59C25.5369 13.3545 25.5431 13.1214 25.5431 12.8906C25.5431 12.5926 25.5321 12.2945 25.5101 11.9963C25.4879 11.6982 25.447 11.405 25.3875 11.1165H20.4289C20.4634 11.405 20.4831 11.6982 20.4881 11.9963C20.4929 12.2945 20.4953 12.5926 20.4953 12.8906V13.59C20.4953 13.8258 20.4827 14.059 20.4577 14.2897H18.2453V13.1531C18.2453 12.7954 18.239 12.4472 18.2265 12.1087C18.214 11.7702 18.1904 11.4395 18.1556 11.1165H11.8673C11.8328 11.4395 11.8092 11.7702 11.7967 12.1087C11.7842 12.4472 11.778 12.7954 11.778 13.1531V14.2897H9.5655C9.5405 14.059 9.528 13.8258 9.528 13.59V12.8906C9.528 12.5926 9.53038 12.2945 9.53512 11.9963C9.53988 11.6982 9.55963 11.405 9.59438 11.1165H4.65C4.5905 11.405 4.54962 11.6982 4.52737 11.9963C4.50537 12.2945 4.49438 12.5926 4.49438 12.8906C4.49438 13.1214 4.50063 13.3545 4.51313 13.59C4.52563 13.8258 4.552 14.059 4.59225 14.2897H2.31938ZM5.31938 8.8665H9.84525C10.074 7.52225 10.3889 6.36125 10.7899 5.3835C11.1909 4.4055 11.6674 3.5665 12.2194 2.8665C10.6731 3.2205 9.2875 3.92825 8.0625 4.98975C6.8375 6.05125 5.92313 7.3435 5.31938 8.8665ZM12.1789 8.8665H17.8211C17.5904 7.705 17.2539 6.5805 16.8116 5.493C16.3694 4.4055 15.7655 3.4195 15 2.535C14.2345 3.42925 13.6293 4.41762 13.1842 5.50012C12.739 6.58287 12.4039 7.705 12.1789 8.8665ZM20.178 8.8665H24.7181C24.1144 7.33375 23.1865 6.039 21.9345 4.98225C20.6825 3.92575 19.2786 3.2205 17.7229 2.8665C18.2941 3.607 18.7889 4.46563 19.2071 5.44238C19.6254 6.41938 19.949 7.56075 20.178 8.8665ZM13.875 25.6406V24.5156C13.875 23.2079 13.4159 22.0997 12.4976 21.1912C11.5794 20.2825 10.4664 19.8281 9.15863 19.8281H0.75V17.5781H9.15863C10.3684 17.5781 11.4848 17.8623 12.5078 18.4305C13.5308 18.9988 14.3615 19.782 15 20.7803C15.6385 19.782 16.4693 18.9988 17.4923 18.4305C18.5153 17.8623 19.6268 17.5781 20.8268 17.5781H29.25V19.8281H20.8268C19.5193 19.8281 18.4088 20.2825 17.4953 21.1912C16.5817 22.0997 16.125 23.2079 16.125 24.5156V25.6406H13.875Z" fill="#22C55E"/>
</svg>
