<svg width="180" height="36" viewBox="0 0 180 36" fill="none" xmlns="http://www.w3.org/2000/svg">
<path d="M172.177 16.4673C167.862 16.4673 164.353 12.9582 164.353 8.64371C164.353 4.32923 167.862 0.820122 172.177 0.820122C176.491 0.820122 180 4.32923 180 8.64371C180 12.9582 176.491 16.4673 172.177 16.4673ZM172.177 1.88847C168.454 1.88847 165.421 4.92093 165.421 8.64371C165.421 12.3665 168.454 15.399 172.177 15.399C175.899 15.399 178.932 12.3665 178.932 8.64371C178.932 4.92093 175.899 1.88847 172.177 1.88847Z" fill="#0000FE"/>
<path d="M168.783 9.86806C168.98 10.0735 169.251 10.1721 169.588 10.1721C169.925 10.1721 170.171 10.0735 170.369 9.86806C170.558 9.66261 170.656 9.3832 170.656 9.02982V6.12885H171.774V9.02982C171.774 9.46538 171.684 9.83519 171.511 10.1557C171.338 10.4762 171.084 10.7145 170.755 10.8871C170.426 11.0597 170.04 11.1419 169.588 11.1419C169.136 11.1419 168.75 11.0597 168.413 10.8871C168.076 10.7145 167.821 10.468 167.64 10.1557C167.46 9.83519 167.369 9.46538 167.369 9.02982V6.12885H168.487V9.02982C168.487 9.3832 168.585 9.66261 168.791 9.86806H168.783Z" fill="#0000FE"/>
<path d="M176.335 6.45757C176.648 6.67946 176.812 6.98353 176.812 7.36156C176.812 7.62454 176.738 7.85465 176.582 8.05188C176.426 8.24911 176.22 8.3806 175.957 8.45456C176.278 8.51209 176.532 8.66002 176.713 8.8819C176.894 9.10379 176.993 9.3832 176.993 9.70371C176.993 10.131 176.828 10.4598 176.491 10.7063C176.154 10.9528 175.702 11.0761 175.127 11.0761H172.777V6.12885H175.053C175.596 6.12885 176.031 6.23569 176.343 6.45757H176.335ZM175.489 7.97791C175.612 7.8793 175.67 7.74781 175.67 7.57523C175.67 7.40265 175.612 7.27117 175.489 7.18077C175.366 7.09037 175.201 7.04106 174.988 7.04928H173.886V8.13406H174.988C175.201 8.13406 175.366 8.08475 175.489 7.98613V7.97791ZM175.612 9.99956C175.76 9.89272 175.834 9.7448 175.834 9.55578C175.834 9.36677 175.76 9.23528 175.612 9.12844C175.464 9.02161 175.25 8.9723 174.988 8.98052H173.886V10.1557H174.988C175.25 10.1557 175.456 10.1064 175.612 9.99956Z" fill="#0000FE"/>
<path d="M23.7749 7.23845H27.999V28.4081H23.7749V7.23845Z" fill="#0000FE"/>
<path d="M87.8511 7.23845H92.0752V28.4081H87.8511V7.23845Z" fill="#0000FE"/>
<path d="M94.7295 11.0762H98.9536V28.4163H94.7295V11.0762Z" fill="#0000FE"/>
<path d="M96.8417 9.61342C98.1319 9.61342 99.1838 8.56151 99.1838 7.27128H94.4995C94.4995 8.56151 95.5514 9.61342 96.8417 9.61342Z" fill="#0000FE"/>
<path d="M118.743 11.0762H122.967V28.4163H118.743V11.0762Z" fill="#0000FE"/>
<path d="M120.847 9.61342C122.137 9.61342 123.189 8.56151 123.189 7.27128H118.504C118.504 8.56151 119.556 9.61342 120.847 9.61342Z" fill="#0000FE"/>
<path d="M21.1204 11.0761V7.24646L5.90056 7.23003C2.64621 7.23003 0 9.8598 0 13.1224V22.532C0 25.7864 2.64621 28.4244 5.90056 28.4244H8.80154H11.5135L17.2908 22.6471V28.4244H21.1204V19.9351V16.1055H17.2826H8.79332V19.9434H14.5624L9.92741 24.5783H6.62375C5.29243 24.5783 4.21586 23.5018 4.21586 22.1704V11.0843H21.1204V11.0761Z" fill="#0000FE"/>
<path d="M80.9889 11.0762V13.706H80.6684L79.148 11.5446C78.9344 11.2488 78.5892 11.068 78.2276 11.068H74.661C71.4148 11.068 68.7769 13.6978 68.7769 16.9439V22.5404C68.7769 25.7865 71.4148 28.4163 74.661 28.4163H78.244C78.6139 28.4163 78.9508 28.2355 79.1645 27.9396L80.6848 25.7865H81.0053V28.4163H85.213V11.0762H81.0053H80.9889ZM80.389 24.5785H73.5762C73.2475 24.5785 72.9763 24.3073 72.9763 23.9785V15.514C72.9763 15.1852 73.2475 14.914 73.5762 14.914H80.389C80.7177 14.914 80.9889 15.1852 80.9889 15.514V23.9785C80.9889 24.3073 80.7177 24.5785 80.389 24.5785Z" fill="#0000FE"/>
<path d="M49.6948 7.23845V18.2342V19.7381V21.242V28.4081H53.9025V25.7784H54.223L55.7433 27.9315C55.957 28.2274 56.2939 28.4081 56.6637 28.4081H60.2468C63.4929 28.4081 66.1309 25.7866 66.1309 22.5405V19.7463V16.9522C66.1309 13.7061 63.4929 11.0763 60.2468 11.0763H56.6802C56.3104 11.0763 55.9652 11.2489 55.7597 11.5447L54.2394 13.7061H53.9189V7.23845H49.7113H49.6948ZM53.9025 23.9786V19.7463V15.514C53.9025 15.1853 54.1737 14.9141 54.5024 14.9141H61.3152C61.6439 14.9141 61.9151 15.1853 61.9151 15.514V19.7463V23.9786C61.9151 24.3073 61.6439 24.5785 61.3152 24.5785H54.5024C54.1737 24.5785 53.9025 24.3073 53.9025 23.9786Z" fill="#0000FE"/>
<path d="M129.82 19.7462V15.514C129.82 15.1852 130.092 14.914 130.42 14.914H137.233C137.562 14.914 137.833 15.1852 137.833 15.514V28.4163H142.041V16.9439C142.041 13.6978 139.403 11.068 136.157 11.068H132.582C132.212 11.068 131.867 11.2406 131.661 11.5364L130.141 13.6978H129.82V11.068H125.613V28.4081H129.82V19.738V19.7462Z" fill="#0000FE"/>
<path d="M156.916 11.0762V13.706H156.595L155.075 11.5446C154.861 11.2488 154.516 11.068 154.154 11.068H150.588C147.342 11.068 144.704 13.6978 144.704 16.9439V22.5404C144.704 25.7865 147.342 28.4163 150.588 28.4163H154.171C154.541 28.4163 154.878 28.2355 155.091 27.9396L156.612 25.7865H156.932V31.3337H148.919V35.1633L155.239 35.1798C158.494 35.1798 161.14 32.55 161.14 29.2874V11.068H156.932L156.916 11.0762ZM156.316 24.5785H149.503C149.174 24.5785 148.903 24.3073 148.903 23.9785V15.514C148.903 15.1852 149.174 14.914 149.503 14.914H156.316C156.644 14.914 156.916 15.1852 156.916 15.514V23.9785C156.916 24.3073 156.644 24.5785 156.316 24.5785Z" fill="#0000FE"/>
<path d="M106.933 24.5784L116.088 13.6977V11.0762H101.6V14.914H110.714L101.279 26.1152V28.4163H116.343V24.5784H106.933Z" fill="#0000FE"/>
<path d="M41.1562 11.0762H38.1566H38.0251H37.7457H36.5047C33.2586 11.0762 30.6206 13.706 30.6206 16.9521V22.5486C30.6206 25.7947 33.2586 28.4245 36.5047 28.4245H38.0251H41.1644C44.4105 28.4245 47.0485 25.8029 47.0485 22.5486V16.9521C47.0485 13.706 44.4105 11.0762 41.1644 11.0762H41.1562ZM42.8326 19.7462V23.9785C42.8326 24.3072 42.5614 24.5784 42.2327 24.5784H35.42C35.0912 24.5784 34.82 24.3072 34.82 23.9785V15.5139C34.82 15.1852 35.0912 14.914 35.42 14.914H42.2327C42.5614 14.914 42.8326 15.1852 42.8326 15.5139V19.7462Z" fill="#0000FE"/>
</svg>
