<svg width="180" height="36" viewBox="0 0 180 36" fill="none" xmlns="http://www.w3.org/2000/svg">
<path d="M172.176 16.3581C167.862 16.3581 164.353 12.849 164.353 8.53453C164.353 4.22005 167.862 0.710938 172.176 0.710938C176.491 0.710938 180 4.22005 180 8.53453C180 12.849 176.491 16.3581 172.176 16.3581ZM172.176 1.77929C168.453 1.77929 165.421 4.81175 165.421 8.53453C165.421 12.2573 168.453 15.2898 172.176 15.2898C175.899 15.2898 178.931 12.2573 178.931 8.53453C178.931 4.81175 175.899 1.77929 172.176 1.77929Z" fill="white"/>
<path d="M168.782 9.75875C168.979 9.9642 169.25 10.0628 169.587 10.0628C169.924 10.0628 170.171 9.9642 170.368 9.75875C170.557 9.5533 170.655 9.27389 170.655 8.92051V6.01953H171.773V8.92051C171.773 9.35607 171.683 9.72587 171.51 10.0464C171.337 10.3669 171.083 10.6052 170.754 10.7778C170.425 10.9504 170.039 11.0325 169.587 11.0325C169.135 11.0325 168.749 10.9504 168.412 10.7778C168.075 10.6052 167.82 10.3587 167.639 10.0464C167.459 9.72587 167.368 9.35607 167.368 8.92051V6.01953H168.486V8.92051C168.486 9.27389 168.584 9.5533 168.79 9.75875H168.782Z" fill="white"/>
<path d="M176.334 6.34825C176.646 6.57014 176.81 6.87421 176.81 7.25224C176.81 7.51522 176.736 7.74533 176.58 7.94256C176.424 8.13979 176.219 8.27128 175.956 8.34524C176.276 8.40277 176.531 8.5507 176.712 8.77258C176.893 8.99447 176.991 9.27389 176.991 9.59439C176.991 10.0217 176.827 10.3504 176.49 10.597C176.153 10.8435 175.701 10.9668 175.126 10.9668H172.775V6.01953H175.052C175.594 6.01953 176.03 6.12637 176.342 6.34825H176.334ZM175.487 7.86859C175.611 7.76998 175.668 7.63849 175.668 7.46591C175.668 7.29333 175.611 7.16185 175.487 7.07145C175.364 6.98105 175.2 6.93174 174.986 6.93996H173.885V8.02474H174.986C175.2 8.02474 175.364 7.97543 175.487 7.87681V7.86859ZM175.611 9.89024C175.759 9.78341 175.833 9.63548 175.833 9.44646C175.833 9.25745 175.759 9.12596 175.611 9.01912C175.463 8.91229 175.249 8.86298 174.986 8.8712H173.885V10.0464H174.986C175.249 10.0464 175.454 9.99707 175.611 9.89024Z" fill="white"/>
<path d="M23.7749 7.12891H27.999V28.2986H23.7749V7.12891Z" fill="white"/>
<path d="M87.8511 7.12891H92.0752V28.2986H87.8511V7.12891Z" fill="white"/>
<path d="M94.7295 10.9668H98.9536V28.3069H94.7295V10.9668Z" fill="white"/>
<path d="M96.8417 9.50376C98.1319 9.50376 99.1838 8.45186 99.1838 7.16162H94.4995C94.4995 8.45186 95.5514 9.50376 96.8417 9.50376Z" fill="white"/>
<path d="M118.743 10.9668H122.967V28.3069H118.743V10.9668Z" fill="white"/>
<path d="M120.847 9.50376C122.137 9.50376 123.189 8.45186 123.189 7.16162H118.504C118.504 8.45186 119.556 9.50376 120.847 9.50376Z" fill="white"/>
<path d="M21.1204 10.9667V7.13704L5.90056 7.12061C2.64621 7.12061 0 9.75038 0 13.0129V22.4226C0 25.677 2.64621 28.315 5.90056 28.315H8.80154H11.5135L17.2908 22.5377V28.315H21.1204V19.8257V15.9961H17.2826H8.79332V19.8339H14.5624L9.92741 24.4689H6.62375C5.29243 24.4689 4.21586 23.3924 4.21586 22.061V10.9749H21.1204V10.9667Z" fill="white"/>
<path d="M80.9889 10.9667V13.5965H80.6684L79.148 11.4351C78.9344 11.1393 78.5892 10.9585 78.2276 10.9585H74.661C71.4148 10.9585 68.7769 13.5883 68.7769 16.8344V22.4309C68.7769 25.677 71.4148 28.3068 74.661 28.3068H78.244C78.6139 28.3068 78.9508 28.126 79.1645 27.8302L80.6848 25.677H81.0053V28.3068H85.213V10.9667H81.0053H80.9889ZM80.389 24.469H73.5762C73.2475 24.469 72.9763 24.1978 72.9763 23.8691V15.4045C72.9763 15.0757 73.2475 14.8045 73.5762 14.8045H80.389C80.7177 14.8045 80.9889 15.0757 80.9889 15.4045V23.8691C80.9889 24.1978 80.7177 24.469 80.389 24.469Z" fill="white"/>
<path d="M49.6948 7.12891V18.1247V19.6286V21.1325V28.2986H53.9025V25.6688H54.223L55.7433 27.822C55.957 28.1178 56.2939 28.2986 56.6637 28.2986H60.2468C63.4929 28.2986 66.1309 25.677 66.1309 22.4309V19.6368V16.8426C66.1309 13.5965 63.4929 10.9667 60.2468 10.9667H56.6802C56.3104 10.9667 55.9652 11.1393 55.7597 11.4352L54.2394 13.5965H53.9189V7.12891H49.7113H49.6948ZM53.9025 23.8691V19.6368V15.4045C53.9025 15.0758 54.1737 14.8046 54.5024 14.8046H61.3152C61.6439 14.8046 61.9151 15.0758 61.9151 15.4045V19.6368V23.8691C61.9151 24.1978 61.6439 24.469 61.3152 24.469H54.5024C54.1737 24.469 53.9025 24.1978 53.9025 23.8691Z" fill="white"/>
<path d="M129.82 19.6368V15.4045C129.82 15.0757 130.092 14.8045 130.42 14.8045H137.233C137.562 14.8045 137.833 15.0757 137.833 15.4045V28.3068H142.041V16.8344C142.041 13.5883 139.403 10.9585 136.157 10.9585H132.582C132.212 10.9585 131.867 11.1311 131.661 11.4269L130.141 13.5883H129.82V10.9585H125.613V28.2986H129.82V19.6285V19.6368Z" fill="white"/>
<path d="M156.916 10.9667V13.5965H156.595L155.075 11.4351C154.861 11.1393 154.516 10.9585 154.154 10.9585H150.588C147.342 10.9585 144.704 13.5883 144.704 16.8344V22.4309C144.704 25.677 147.342 28.3068 150.588 28.3068H154.171C154.541 28.3068 154.878 28.126 155.091 27.8302L156.612 25.677H156.932V31.2242H148.919V35.0538L155.239 35.0703C158.494 35.0703 161.14 32.4405 161.14 29.1779V10.9585H156.932L156.916 10.9667ZM156.316 24.469H149.503C149.174 24.469 148.903 24.1978 148.903 23.8691V15.4045C148.903 15.0757 149.174 14.8045 149.503 14.8045H156.316C156.644 14.8045 156.916 15.0757 156.916 15.4045V23.8691C156.916 24.1978 156.644 24.469 156.316 24.469Z" fill="white"/>
<path d="M106.933 24.4691L116.088 13.5884V10.9668H101.6V14.8046H110.714L101.279 26.0058V28.3069H116.343V24.4691H106.933Z" fill="white"/>
<path d="M41.1562 10.9668H38.1566H38.0251H37.7457H36.5047C33.2586 10.9668 30.6206 13.5966 30.6206 16.8427V22.4392C30.6206 25.6853 33.2586 28.3151 36.5047 28.3151H38.0251H41.1644C44.4105 28.3151 47.0485 25.6935 47.0485 22.4392V16.8427C47.0485 13.5966 44.4105 10.9668 41.1644 10.9668H41.1562ZM42.8326 19.6368V23.8691C42.8326 24.1979 42.5614 24.4691 42.2327 24.4691H35.42C35.0912 24.4691 34.82 24.1979 34.82 23.8691V15.4045C34.82 15.0758 35.0912 14.8046 35.42 14.8046H42.2327C42.5614 14.8046 42.8326 15.0758 42.8326 15.4045V19.6368Z" fill="white"/>
</svg>
