<svg width="21" height="21" viewBox="0 0 21 21" fill="none" xmlns="http://www.w3.org/2000/svg">
<path d="M14.4971 2.55762H6.16374C3.86255 2.55762 1.99707 4.4231 1.99707 6.72428V15.0576C1.99707 17.3588 3.86255 19.2243 6.16374 19.2243H14.4971C16.7983 19.2243 18.6637 17.3588 18.6637 15.0576V6.72428C18.6637 4.4231 16.7983 2.55762 14.4971 2.55762Z" stroke="#6699FF" stroke-width="1.66667" stroke-linecap="round" stroke-linejoin="round"/>
<path d="M13.6638 10.3659C13.7667 11.0594 13.6482 11.7677 13.3253 12.3901C13.0024 13.0124 12.4914 13.5171 11.8652 13.8323C11.2389 14.1475 10.5292 14.2572 9.83697 14.1458C9.14476 14.0344 8.50529 13.7076 8.00952 13.2118C7.51375 12.7161 7.18693 12.0766 7.07554 11.3844C6.96415 10.6922 7.07387 9.98245 7.38909 9.35619C7.70431 8.72992 8.20897 8.21899 8.83131 7.89608C9.45364 7.57316 10.1619 7.4547 10.8555 7.55754C11.5629 7.66245 12.2179 7.9921 12.7236 8.4978C13.2293 9.0035 13.5589 9.65844 13.6638 10.3659Z" stroke="#6699FF" stroke-width="1.66667" stroke-linecap="round" stroke-linejoin="round"/>
<path d="M14.9131 6.30762H14.9214" stroke="#6699FF" stroke-width="1.66667" stroke-linecap="round" stroke-linejoin="round"/>
</svg>
