<svg width="21" height="21" viewBox="0 0 21 21" fill="none" xmlns="http://www.w3.org/2000/svg">
<path d="M14.2388 2.34497H5.90544C3.60425 2.34497 1.73877 4.21045 1.73877 6.51164V14.845C1.73877 17.1462 3.60425 19.0116 5.90544 19.0116H14.2388C16.54 19.0116 18.4054 17.1462 18.4054 14.845V6.51164C18.4054 4.21045 16.54 2.34497 14.2388 2.34497Z" stroke="#29303D" stroke-width="1.66667" stroke-linecap="round" stroke-linejoin="round"/>
<path d="M13.4055 10.1532C13.5084 10.8468 13.3899 11.5551 13.067 12.1774C12.7441 12.7997 12.2331 13.3044 11.6069 13.6196C10.9806 13.9348 10.2709 14.0446 9.57867 13.9332C8.88646 13.8218 8.24698 13.495 7.75122 12.9992C7.25545 12.5034 6.92863 11.864 6.81724 11.1717C6.70585 10.4795 6.81557 9.76981 7.13079 9.14354C7.44601 8.51727 7.95067 8.00635 8.573 7.68343C9.19534 7.36051 9.90365 7.24205 10.5972 7.3449C11.3046 7.4498 11.9596 7.77945 12.4653 8.28515C12.971 8.79085 13.3006 9.44579 13.4055 10.1532Z" stroke="#29303D" stroke-width="1.66667" stroke-linecap="round" stroke-linejoin="round"/>
<path d="M14.6548 6.09497H14.6631" stroke="#29303D" stroke-width="1.66667" stroke-linecap="round" stroke-linejoin="round"/>
</svg>
