<svg width="21" height="21" viewBox="0 0 21 21" fill="none" xmlns="http://www.w3.org/2000/svg">
<path d="M14.2388 2.4624H5.90544C3.60425 2.4624 1.73877 4.32788 1.73877 6.62907V14.9624C1.73877 17.2636 3.60425 19.1291 5.90544 19.1291H14.2388C16.54 19.1291 18.4054 17.2636 18.4054 14.9624V6.62907C18.4054 4.32788 16.54 2.4624 14.2388 2.4624Z" stroke="#29303D" stroke-width="1.66667" stroke-linecap="round" stroke-linejoin="round"/>
<path d="M13.4055 10.2707C13.5084 10.9642 13.3899 11.6725 13.067 12.2948C12.7441 12.9172 12.2331 13.4218 11.6069 13.7371C10.9806 14.0523 10.2709 14.162 9.57867 14.0506C8.88646 13.9392 8.24698 13.6124 7.75122 13.1166C7.25545 12.6209 6.92863 11.9814 6.81724 11.2892C6.70585 10.597 6.81557 9.88724 7.13079 9.26097C7.44601 8.63471 7.95067 8.12378 8.573 7.80086C9.19534 7.47795 9.90365 7.35949 10.5972 7.46233C11.3046 7.56723 11.9596 7.89688 12.4653 8.40258C12.971 8.90829 13.3006 9.56323 13.4055 10.2707Z" stroke="#29303D" stroke-width="1.66667" stroke-linecap="round" stroke-linejoin="round"/>
<path d="M14.6548 6.2124H14.6631" stroke="#29303D" stroke-width="1.66667" stroke-linecap="round" stroke-linejoin="round"/>
</svg>
