<svg width="25" height="24" viewBox="0 0 25 24" fill="none" xmlns="http://www.w3.org/2000/svg">
<mask id="mask0_14_151" style="mask-type:alpha" maskUnits="userSpaceOnUse" x="0" y="0" width="25" height="24">
<rect x="0.5" width="24" height="24" fill="#D9D9D9"/>
</mask>
<g mask="url(#mask0_14_151)">
<path d="M6.1155 21C5.668 21 5.28683 20.8427 4.972 20.528C4.65733 20.2132 4.5 19.832 4.5 19.3845V8.2635C4.21283 8.14417 3.97433 7.9515 3.7845 7.6855C3.59483 7.4195 3.5 7.11408 3.5 6.76925V4.6155C3.5 4.168 3.65733 3.78683 3.972 3.472C4.28683 3.15733 4.668 3 5.1155 3H19.8845C20.332 3 20.7132 3.15733 21.028 3.472C21.3427 3.78683 21.5 4.168 21.5 4.6155V6.76925C21.5 7.11408 21.4052 7.4195 21.2155 7.6855C21.0257 7.9515 20.7872 8.14417 20.5 8.2635V19.3845C20.5 19.832 20.3427 20.2132 20.028 20.528C19.7132 20.8427 19.332 21 18.8845 21H6.1155ZM5.5 8.3845V19.2885C5.5 19.4937 5.57375 19.6635 5.72125 19.798C5.86858 19.9327 6.05125 20 6.26925 20H18.8845C19.064 20 19.2115 19.9423 19.327 19.827C19.4423 19.7115 19.5 19.564 19.5 19.3845V8.3845H5.5ZM5.1155 7.3845H19.8845C20.064 7.3845 20.2115 7.32683 20.327 7.2115C20.4423 7.09617 20.5 6.94875 20.5 6.76925V4.6155C20.5 4.436 20.4423 4.2885 20.327 4.173C20.2115 4.05767 20.064 4 19.8845 4H5.1155C4.936 4 4.7885 4.05767 4.673 4.173C4.55767 4.2885 4.5 4.436 4.5 4.6155V6.76925C4.5 6.94875 4.55767 7.09617 4.673 7.2115C4.7885 7.32683 4.936 7.3845 5.1155 7.3845ZM9.8845 12.8655H15.1155V12H9.8845V12.8655Z" fill="#29303D"/>
</g>
</svg>
