<svg width="25" height="25" viewBox="0 0 25 25" fill="none" xmlns="http://www.w3.org/2000/svg">
<mask id="mask0_492_3209" style="mask-type:alpha" maskUnits="userSpaceOnUse" x="0" y="0" width="25" height="25">
<rect x="0.254395" y="0.677795" width="24" height="24" fill="#D9D9D9"/>
</mask>
<g mask="url(#mask0_492_3209)">
<path d="M11.0621 17.2163H7.29289C6.03723 17.2163 4.96689 16.7738 4.08189 15.8888C3.19689 15.0039 2.75439 13.9338 2.75439 12.6783C2.75439 11.4228 3.19689 10.3524 4.08189 9.46728C4.96689 8.58195 6.03723 8.13928 7.29289 8.13928H11.0621V9.63928H7.29289C6.45306 9.63928 5.73673 9.93578 5.14389 10.5288C4.55089 11.1218 4.25439 11.8381 4.25439 12.6778C4.25439 13.5174 4.55089 14.2338 5.14389 14.8268C5.73673 15.4198 6.45306 15.7163 7.29289 15.7163H11.0621V17.2163ZM8.50439 13.4278V11.9278H16.0044V13.4278H8.50439ZM13.4466 17.2163V15.7163H17.2159C18.0557 15.7163 18.7721 15.4198 19.3649 14.8268C19.9579 14.2338 20.2544 13.5174 20.2544 12.6778C20.2544 11.8381 19.9579 11.1218 19.3649 10.5288C18.7721 9.93578 18.0557 9.63928 17.2159 9.63928H13.4466V8.13928H17.2159C18.4716 8.13928 19.5419 8.58178 20.4269 9.46678C21.3119 10.3516 21.7544 11.4218 21.7544 12.6773C21.7544 13.9328 21.3119 15.0031 20.4269 15.8883C19.5419 16.7736 18.4716 17.2163 17.2159 17.2163H13.4466Z" fill="#29303D"/>
</g>
</svg>
