<svg width="20" height="21" viewBox="0 0 20 21" fill="none" xmlns="http://www.w3.org/2000/svg">
<path d="M13.333 7.55762C14.6591 7.55762 15.9309 8.0844 16.8685 9.02208C17.8062 9.95977 18.333 11.2315 18.333 12.5576V18.391H14.9997V12.5576C14.9997 12.1156 14.8241 11.6917 14.5115 11.3791C14.199 11.0665 13.775 10.891 13.333 10.891C12.891 10.891 12.4671 11.0665 12.1545 11.3791C11.8419 11.6917 11.6663 12.1156 11.6663 12.5576V18.391H8.33301V12.5576C8.33301 11.2315 8.85979 9.95977 9.79747 9.02208C10.7352 8.0844 12.0069 7.55762 13.333 7.55762Z" stroke="#6699FF" stroke-width="1.66667" stroke-linecap="round" stroke-linejoin="round"/>
<path d="M5.00033 8.39062H1.66699V18.3906H5.00033V8.39062Z" stroke="#6699FF" stroke-width="1.66667" stroke-linecap="round" stroke-linejoin="round"/>
<path d="M3.33366 5.89095C4.25413 5.89095 5.00033 5.14476 5.00033 4.22428C5.00033 3.30381 4.25413 2.55762 3.33366 2.55762C2.41318 2.55762 1.66699 3.30381 1.66699 4.22428C1.66699 5.14476 2.41318 5.89095 3.33366 5.89095Z" stroke="#6699FF" stroke-width="1.66667" stroke-linecap="round" stroke-linejoin="round"/>
</svg>
