<svg width="20" height="21" viewBox="0 0 20 21" fill="none" xmlns="http://www.w3.org/2000/svg">
<path d="M16.6668 8.72428C16.6668 12.8851 12.051 17.2185 10.501 18.5568C10.3566 18.6654 10.1808 18.7241 10.0002 18.7241C9.8195 18.7241 9.64373 18.6654 9.49933 18.5568C7.94933 17.2185 3.3335 12.8851 3.3335 8.72428C3.3335 6.95617 4.03588 5.26048 5.28612 4.01024C6.53636 2.76 8.23205 2.05762 10.0002 2.05762C11.7683 2.05762 13.464 2.76 14.7142 4.01024C15.9645 5.26048 16.6668 6.95617 16.6668 8.72428Z" stroke="#6699FF" stroke-width="1.66667" stroke-linecap="round" stroke-linejoin="round"/>
<path d="M10 11.2236C11.3807 11.2236 12.5 10.1043 12.5 8.72363C12.5 7.34292 11.3807 6.22363 10 6.22363C8.61929 6.22363 7.5 7.34292 7.5 8.72363C7.5 10.1043 8.61929 11.2236 10 11.2236Z" stroke="#6699FF" stroke-width="1.66667" stroke-linecap="round" stroke-linejoin="round"/>
</svg>
