<svg width="16" height="17" viewBox="0 0 16 17" fill="none" xmlns="http://www.w3.org/2000/svg">
<path d="M13.3346 7.55697C13.3346 10.8856 9.64197 14.3523 8.40197 15.423C8.28645 15.5098 8.14583 15.5568 8.0013 15.5568C7.85677 15.5568 7.71615 15.5098 7.60064 15.423C6.36064 14.3523 2.66797 10.8856 2.66797 7.55697C2.66797 6.14248 3.22987 4.78592 4.23007 3.78573C5.23026 2.78554 6.58681 2.22363 8.0013 2.22363C9.41579 2.22363 10.7723 2.78554 11.7725 3.78573C12.7727 4.78592 13.3346 6.14248 13.3346 7.55697Z" stroke="#29303D" stroke-opacity="0.6" stroke-width="1.33333" stroke-linecap="round" stroke-linejoin="round"/>
<path d="M8 9.55762C9.10457 9.55762 10 8.66219 10 7.55762C10 6.45305 9.10457 5.55762 8 5.55762C6.89543 5.55762 6 6.45305 6 7.55762C6 8.66219 6.89543 9.55762 8 9.55762Z" stroke="#29303D" stroke-opacity="0.6" stroke-width="1.33333" stroke-linecap="round" stroke-linejoin="round"/>
</svg>
