<svg width="24" height="25" viewBox="0 0 24 25" fill="none" xmlns="http://www.w3.org/2000/svg">
<path d="M15 2.89062H6C5.46957 2.89063 4.96086 3.10134 4.58579 3.47641C4.21071 3.85148 4 4.36019 4 4.89062V20.8906C4 21.4211 4.21071 21.9298 4.58579 22.3048C4.96086 22.6799 5.46957 22.8906 6 22.8906H18C18.5304 22.8906 19.0391 22.6799 19.4142 22.3048C19.7893 21.9298 20 21.4211 20 20.8906V7.89062L15 2.89062Z" stroke="#EF4444" stroke-width="2" stroke-linecap="round" stroke-linejoin="round"/>
<path d="M14 2.89062V6.89062C14 7.42106 14.2107 7.92977 14.5858 8.30484C14.9609 8.67991 15.4696 8.89062 16 8.89062H20" stroke="#EF4444" stroke-width="2" stroke-linecap="round" stroke-linejoin="round"/>
<path d="M10 9.89062H8" stroke="#EF4444" stroke-width="2" stroke-linecap="round" stroke-linejoin="round"/>
<path d="M16 13.8906H8" stroke="#EF4444" stroke-width="2" stroke-linecap="round" stroke-linejoin="round"/>
<path d="M16 17.8906H8" stroke="#EF4444" stroke-width="2" stroke-linecap="round" stroke-linejoin="round"/>
</svg>
