<svg width="32" height="33" viewBox="0 0 32 33" fill="none" xmlns="http://www.w3.org/2000/svg">
<path d="M21.3346 4.89062C20.6274 4.89063 19.9491 5.17158 19.449 5.67167C18.9489 6.17177 18.668 6.85005 18.668 7.55729V15.5573C18.668 16.2645 18.9489 16.9428 19.449 17.4429C19.9491 17.943 20.6274 18.224 21.3346 18.224C21.6883 18.224 22.0274 18.3644 22.2774 18.6145C22.5275 18.8645 22.668 19.2037 22.668 19.5573V20.8906C22.668 21.5979 22.387 22.2761 21.8869 22.7762C21.3868 23.2763 20.7085 23.5573 20.0013 23.5573C19.6477 23.5573 19.3085 23.6978 19.0585 23.9478C18.8084 24.1979 18.668 24.537 18.668 24.8906V27.5573C18.668 27.9109 18.8084 28.2501 19.0585 28.5001C19.3085 28.7502 19.6477 28.8906 20.0013 28.8906C22.123 28.8906 24.1579 28.0478 25.6582 26.5475C27.1584 25.0472 28.0013 23.0124 28.0013 20.8906V7.55729C28.0013 6.85005 27.7204 6.17177 27.2203 5.67167C26.7202 5.17158 26.0419 4.89063 25.3346 4.89062H21.3346Z" stroke="#6699FF" stroke-width="2.66667" stroke-linecap="round" stroke-linejoin="round"/>
<path d="M6.66667 4.89062C5.95942 4.89063 5.28115 5.17158 4.78105 5.67167C4.28095 6.17177 4 6.85005 4 7.55729V15.5573C4 16.2645 4.28095 16.9428 4.78105 17.4429C5.28115 17.943 5.95942 18.224 6.66667 18.224C7.02029 18.224 7.35943 18.3644 7.60948 18.6145C7.85952 18.8645 8 19.2037 8 19.5573V20.8906C8 21.5979 7.71905 22.2761 7.21895 22.7762C6.71885 23.2763 6.04058 23.5573 5.33333 23.5573C4.97971 23.5573 4.64057 23.6978 4.39052 23.9478C4.14048 24.1979 4 24.537 4 24.8906V27.5573C4 27.9109 4.14048 28.2501 4.39052 28.5001C4.64057 28.7502 4.97971 28.8906 5.33333 28.8906C7.45507 28.8906 9.4899 28.0478 10.9902 26.5475C12.4905 25.0472 13.3333 23.0124 13.3333 20.8906V7.55729C13.3333 6.85005 13.0524 6.17177 12.5523 5.67167C12.0522 5.17158 11.3739 4.89063 10.6667 4.89062H6.66667Z" stroke="#6699FF" stroke-width="2.66667" stroke-linecap="round" stroke-linejoin="round"/>
</svg>
