<svg width="24" height="24" viewBox="0 0 24 24" fill="none" xmlns="http://www.w3.org/2000/svg">
<mask id="mask0_14_180" style="mask-type:alpha" maskUnits="userSpaceOnUse" x="0" y="0" width="24" height="24">
<rect width="24" height="24" fill="#D9D9D9"/>
</mask>
<g mask="url(#mask0_14_180)">
<path d="M11.001 21C10.799 21 10.5959 20.9596 10.3918 20.8788C10.1876 20.7981 10.0038 20.677 9.8405 20.5155L3.47875 14.1538C3.31225 13.9884 3.19083 13.8059 3.1145 13.6062C3.03817 13.4064 3 13.2032 3 12.9965C3 12.7898 3.03817 12.5844 3.1145 12.3802C3.19083 12.1761 3.31225 11.9922 3.47875 11.8287L11.8173 3.4845C11.9659 3.3365 12.1417 3.21875 12.3445 3.13125C12.5473 3.04375 12.7568 3 12.973 3H19.3595C19.8198 3 20.2073 3.16008 20.522 3.48025C20.8368 3.80025 20.9943 4.185 20.9943 4.6345V11.0212C20.9943 11.2422 20.9538 11.4529 20.873 11.6533C20.7923 11.8536 20.6732 12.0262 20.5155 12.1713L12.152 20.5155C11.9903 20.677 11.8086 20.7981 11.6067 20.8788C11.4047 20.9596 11.2028 21 11.001 21ZM10.5538 19.8078C10.6821 19.9359 10.8328 20 11.0058 20C11.1789 20 11.3296 19.9359 11.4578 19.8078L19.8212 11.4578C19.8852 11.3936 19.9301 11.3231 19.9557 11.2463C19.9814 11.1693 19.9943 11.0923 19.9943 11.0155V4.6345C19.9943 4.45517 19.9333 4.30775 19.8115 4.19225C19.6897 4.07692 19.539 4.01925 19.3595 4.01925H12.7288L4.19225 12.5423C4.06408 12.6704 4 12.8211 4 12.9943C4 13.1673 4.06408 13.3179 4.19225 13.4462L10.5538 19.8078ZM17.4365 7.55775C17.7197 7.55775 17.9603 7.4605 18.1585 7.266C18.3567 7.0715 18.4557 6.83542 18.4557 6.55775C18.4557 6.27458 18.3574 6.03392 18.1608 5.83575C17.9641 5.63758 17.7253 5.5385 17.4445 5.5385C17.1635 5.5385 16.9253 5.63683 16.7298 5.8335C16.5343 6.03017 16.4365 6.26892 16.4365 6.54975C16.4365 6.83075 16.5338 7.069 16.7283 7.2645C16.9226 7.46 17.1587 7.55775 17.4365 7.55775Z" fill="#29303D"/>
</g>
</svg>
