<svg width="32" height="32" viewBox="0 0 32 32" fill="none" xmlns="http://www.w3.org/2000/svg">
<path d="M15.3667 3.06C15.4251 2.94195 15.5154 2.84258 15.6273 2.7731C15.7392 2.70362 15.8683 2.66681 16 2.66681C16.1318 2.66681 16.2609 2.70362 16.3728 2.7731C16.4847 2.84258 16.5749 2.94195 16.6334 3.06L19.7134 9.29867C19.9163 9.70929 20.2158 10.0645 20.5862 10.3339C20.9566 10.6033 21.3869 10.7788 21.84 10.8453L28.728 11.8533C28.8586 11.8722 28.9812 11.9273 29.082 12.0123C29.1829 12.0972 29.2579 12.2087 29.2987 12.3341C29.3395 12.4596 29.3444 12.5939 29.3128 12.7219C29.2812 12.85 29.2145 12.9666 29.12 13.0587L24.1387 17.9093C23.8102 18.2295 23.5644 18.6246 23.4225 19.0608C23.2806 19.497 23.2468 19.9612 23.324 20.4133L24.5 27.2667C24.5231 27.3971 24.509 27.5314 24.4594 27.6542C24.4098 27.7771 24.3266 27.8835 24.2194 27.9613C24.1123 28.0392 23.9853 28.0853 23.8532 28.0945C23.721 28.1037 23.589 28.0756 23.472 28.0133L17.3147 24.776C16.909 24.563 16.4576 24.4517 15.9994 24.4517C15.5411 24.4517 15.0897 24.563 14.684 24.776L8.52804 28.0133C8.41115 28.0752 8.27924 28.1031 8.14731 28.0937C8.01538 28.0843 7.88873 28.0381 7.78177 27.9603C7.6748 27.8825 7.59182 27.7763 7.54225 27.6536C7.49268 27.531 7.47852 27.3969 7.50137 27.2667L8.67604 20.4147C8.75363 19.9623 8.72002 19.4979 8.57809 19.0614C8.43616 18.6249 8.19018 18.2295 7.86137 17.9093L2.88004 13.06C2.78483 12.968 2.71736 12.8512 2.68532 12.7228C2.65328 12.5943 2.65796 12.4595 2.69881 12.3336C2.73967 12.2077 2.81506 12.0958 2.91641 12.0106C3.01775 11.9255 3.14098 11.8705 3.27204 11.852L10.1587 10.8453C10.6124 10.7793 11.0432 10.6041 11.4142 10.3347C11.7851 10.0652 12.085 9.7097 12.288 9.29867L15.3667 3.06Z" stroke="#6699FF" stroke-width="2.66667" stroke-linecap="round" stroke-linejoin="round"/>
</svg>
