<svg width="24" height="24" viewBox="0 0 24 24" fill="none" xmlns="http://www.w3.org/2000/svg">
<mask id="mask0_14_172" style="mask-type:alpha" maskUnits="userSpaceOnUse" x="0" y="0" width="24" height="24">
<rect width="24" height="24" fill="#D9D9D9"/>
</mask>
<g mask="url(#mask0_14_172)">
<path d="M20.8962 18.0078L18.6077 15.7L19.2962 15.0115L21.6037 17.3L20.8962 18.0078ZM17.7 6.373L17.0115 5.6845L19.3 3.39625L20.0077 4.0845L17.7 6.373ZM6.29999 6.39225L4.01149 4.0845L4.69999 3.39625L7.00774 5.6845L6.29999 6.39225ZM3.08449 18.0078L2.39624 17.3L4.68449 15.0115L5.39224 15.7L3.08449 18.0078ZM7.96549 17.8828L12 15.4635L16.0537 17.927L14.998 13.3463L18.5422 10.2923L13.873 9.87125L12 5.548L10.1462 9.84625L5.47699 10.248L9.02124 13.3463L7.96549 17.8828ZM6.44049 20L7.91149 13.725L2.99999 9.48075L9.46924 8.93275L12 3L14.55 8.93275L21.0192 9.48075L16.1077 13.725L17.5787 20L12 16.6595L6.44049 20Z" fill="#29303D"/>
</g>
</svg>
