<svg width="24" height="25" viewBox="0 0 24 25" fill="none" xmlns="http://www.w3.org/2000/svg">
<rect y="0.890625" width="24" height="24" rx="12" fill="#0000FF"/>
<path d="M11.7634 8.03807C11.7853 7.9938 11.8192 7.95654 11.8611 7.93048C11.9031 7.90443 11.9515 7.89062 12.0009 7.89062C12.0503 7.89062 12.0987 7.90443 12.1407 7.93048C12.1826 7.95654 12.2165 7.9938 12.2384 8.03807L13.3934 10.3776C13.4695 10.5316 13.5818 10.6648 13.7207 10.7658C13.8596 10.8668 14.021 10.9326 14.1909 10.9576L16.7739 11.3356C16.8228 11.3427 16.8688 11.3633 16.9066 11.3952C16.9445 11.427 16.9726 11.4688 16.9879 11.5159C17.0032 11.5629 17.005 11.6133 16.9932 11.6613C16.9814 11.7093 16.9563 11.753 16.9209 11.7876L15.0529 13.6066C14.9297 13.7266 14.8375 13.8748 14.7843 14.0384C14.7311 14.202 14.7184 14.376 14.7474 14.5456L15.1884 17.1156C15.197 17.1645 15.1918 17.2149 15.1731 17.2609C15.1545 17.307 15.1234 17.3469 15.0832 17.3761C15.043 17.4053 14.9954 17.4226 14.9458 17.426C14.8963 17.4295 14.8467 17.4189 14.8029 17.3956L12.4939 16.1816C12.3418 16.1017 12.1725 16.0599 12.0006 16.0599C11.8288 16.0599 11.6595 16.1017 11.5074 16.1816L9.1989 17.3956C9.15507 17.4188 9.1056 17.4292 9.05613 17.4257C9.00665 17.4222 8.95916 17.4049 8.91905 17.3757C8.87894 17.3465 8.84782 17.3067 8.82923 17.2607C8.81064 17.2147 8.80533 17.1644 8.8139 17.1156L9.2544 14.5461C9.2835 14.3764 9.27089 14.2023 9.21767 14.0386C9.16445 13.8749 9.0722 13.7266 8.9489 13.6066L7.0809 11.7881C7.0452 11.7536 7.0199 11.7098 7.00788 11.6616C6.99587 11.6134 6.99762 11.5629 7.01294 11.5157C7.02826 11.4685 7.05653 11.4265 7.09454 11.3946C7.13254 11.3626 7.17875 11.342 7.2279 11.3351L9.8104 10.9576C9.98053 10.9328 10.1421 10.8671 10.2812 10.7661C10.4203 10.665 10.5328 10.5317 10.6089 10.3776L11.7634 8.03807Z" stroke="white" stroke-linecap="round" stroke-linejoin="round"/>
</svg>
