<svg width="20" height="21" viewBox="0 0 20 21" fill="none" xmlns="http://www.w3.org/2000/svg">
<path d="M18.3332 14.491V16.991C18.3341 17.2231 18.2866 17.4528 18.1936 17.6655C18.1006 17.8781 17.9643 18.069 17.7933 18.2259C17.6222 18.3828 17.4203 18.5023 17.2005 18.5766C16.9806 18.651 16.7477 18.6786 16.5165 18.6577C13.9522 18.3791 11.489 17.5028 9.32486 16.0994C7.31139 14.8199 5.60431 13.1128 4.32486 11.0994C2.91651 8.92537 2.04007 6.45019 1.76653 3.87436C1.7457 3.64392 1.77309 3.41166 1.84695 3.19238C1.9208 2.97311 2.03951 2.77161 2.1955 2.60072C2.3515 2.42983 2.54137 2.29329 2.75302 2.1998C2.96468 2.10631 3.19348 2.05792 3.42486 2.0577H5.92486C6.32928 2.05372 6.72136 2.19693 7.028 2.46064C7.33464 2.72435 7.53493 3.09057 7.59153 3.49103C7.69705 4.29109 7.89274 5.07664 8.17486 5.8327C8.28698 6.13097 8.31125 6.45513 8.24478 6.76676C8.17832 7.0784 8.02392 7.36446 7.79986 7.59103L6.74153 8.64936C7.92783 10.7357 9.65524 12.4631 11.7415 13.6494L12.7999 12.591C13.0264 12.367 13.3125 12.2126 13.6241 12.1461C13.9358 12.0796 14.2599 12.1039 14.5582 12.216C15.3143 12.4982 16.0998 12.6938 16.8999 12.7994C17.3047 12.8565 17.6744 13.0604 17.9386 13.3723C18.2029 13.6842 18.3433 14.0823 18.3332 14.491Z" stroke="#6699FF" stroke-width="1.66667" stroke-linecap="round" stroke-linejoin="round"/>
</svg>
