<svg width="25" height="25" viewBox="0 0 25 25" fill="none" xmlns="http://www.w3.org/2000/svg">
<mask id="mask0_492_4415" style="mask-type:alpha" maskUnits="userSpaceOnUse" x="0" y="0" width="25" height="25">
<rect x="0.254395" y="0.795166" width="24" height="24" fill="#D9D9D9"/>
</mask>
<g mask="url(#mask0_492_4415)">
<path d="M11.0621 17.3336H7.29289C6.03723 17.3336 4.96689 16.8911 4.08189 16.0061C3.19689 15.1213 2.75439 14.0511 2.75439 12.7956C2.75439 11.5401 3.19689 10.4698 4.08189 9.58459C4.96689 8.69926 6.03723 8.25659 7.29289 8.25659H11.0621V9.75659H7.29289C6.45306 9.75659 5.73673 10.0531 5.14389 10.6461C4.55089 11.2391 4.25439 11.9554 4.25439 12.7951C4.25439 13.6348 4.55089 14.3511 5.14389 14.9441C5.73673 15.5371 6.45306 15.8336 7.29289 15.8336H11.0621V17.3336ZM8.50439 13.5451V12.0451H16.0044V13.5451H8.50439ZM13.4466 17.3336V15.8336H17.2159C18.0557 15.8336 18.7721 15.5371 19.3649 14.9441C19.9579 14.3511 20.2544 13.6348 20.2544 12.7951C20.2544 11.9554 19.9579 11.2391 19.3649 10.6461C18.7721 10.0531 18.0557 9.75659 17.2159 9.75659H13.4466V8.25659H17.2159C18.4716 8.25659 19.5419 8.69909 20.4269 9.58409C21.3119 10.4689 21.7544 11.5391 21.7544 12.7946C21.7544 14.0501 21.3119 15.1204 20.4269 16.0056C19.5419 16.8909 18.4716 17.3336 17.2159 17.3336H13.4466Z" fill="#29303D"/>
</g>
</svg>
