<svg width="20" height="21" viewBox="0 0 20 21" fill="none" xmlns="http://www.w3.org/2000/svg">
<path d="M2.08309 15.0573C1.50095 12.31 1.50095 9.47123 2.08309 6.72396C2.15959 6.44497 2.30738 6.19069 2.51193 5.98613C2.71649 5.78157 2.97077 5.63378 3.24976 5.55729C7.7193 4.81684 12.2802 4.81684 16.7498 5.55729C17.0288 5.63378 17.283 5.78157 17.4876 5.98613C17.6921 6.19069 17.8399 6.44497 17.9164 6.72396C18.4986 9.47123 18.4986 12.31 17.9164 15.0573C17.8399 15.3363 17.6921 15.5906 17.4876 15.7951C17.283 15.9997 17.0288 16.1475 16.7498 16.224C12.2802 16.9646 7.71929 16.9646 3.24976 16.224C2.97077 16.1475 2.71649 15.9997 2.51193 15.7951C2.30738 15.5906 2.15959 15.3363 2.08309 15.0573Z" stroke="#6699FF" stroke-width="1.66667" stroke-linecap="round" stroke-linejoin="round"/>
<path d="M8.33301 13.3906L12.4997 10.8906L8.33301 8.39062V13.3906Z" stroke="#6699FF" stroke-width="1.66667" stroke-linecap="round" stroke-linejoin="round"/>
</svg>
